<?xml version="1.0" encoding="UTF-8" standalone="no"?>
<svg width="25px" height="25px" viewBox="0 0 25 25" version="1.1" xmlns="http://www.w3.org/2000/svg" xmlns:xlink="http://www.w3.org/1999/xlink">
    <!-- Generator: sketchtool 41.1 (35376) - http://www.bohemiancoding.com/sketch -->
    <title>C5A1F0E9-A82D-464C-90CB-83D5F18FB165</title>
    <desc>Created with sketchtool.</desc>
    <defs></defs>
    <g id="Symbols" stroke="none" stroke-width="1" fill="none" fill-rule="evenodd">
        <g id="Social-nav" transform="translate(-11.000000, -108.000000)" fill="#152828">
            <g id="Group-38">
                <path d="M30.2204004,117.166667 L36,117.166667 L36,129.407172 C36,131.394682 34.3844127,133 32.3914847,133 L14.6085153,133 C12.6018931,133 11,131.391436 11,129.407172 L11,117.166667 L16.7795996,117.166667 C16.2805884,118.170799 16,119.302632 16,120.5 C16,124.642136 19.3578642,128 23.5,128 C27.6421358,128 31,124.642136 31,120.5 C31,119.302632 30.7194116,118.170799 30.2204004,117.166667 Z M17.9097336,115.5 L11,115.5 L11,110.393668 C11,109.074567 12.0732205,108 13.3971051,108 L33.6028949,108 C34.9257812,108 36,109.071681 36,110.393668 L36,115.5 L29.0902664,115.5 C27.7169651,113.965627 25.7212497,113 23.5,113 C21.2787503,113 19.2830349,113.965627 17.9097336,115.5 Z M16.8333333,108 L16.8333333,113 L17.6666667,113 L17.6666667,108 L16.8333333,108 Z M15.1666667,108 L15.1666667,113 L16,113 L16,108 L15.1666667,108 Z M13.5,108 L13.5,113 L14.3333333,113 L14.3333333,108 L13.5,108 Z M29.9303151,109.666667 C29.6006112,109.666667 29.3333333,109.940053 29.3333333,110.263648 L29.3333333,113.236352 C29.3333333,113.566056 29.60672,113.833333 29.9303151,113.833333 L32.9030183,113.833333 C33.2327222,113.833333 33.5,113.559947 33.5,113.236352 L33.5,110.263648 C33.5,109.933944 33.2266134,109.666667 32.9030183,109.666667 L29.9303151,109.666667 Z M23.5,126.333333 C26.7216612,126.333333 29.3333333,123.721661 29.3333333,120.5 C29.3333333,117.278339 26.7216612,114.666667 23.5,114.666667 C20.2783388,114.666667 17.6666667,117.278339 17.6666667,120.5 C17.6666667,123.721661 20.2783388,126.333333 23.5,126.333333 Z" id="instagram_s"></path>
            </g>
        </g>
    </g>
</svg>