<?xml version="1.0" encoding="UTF-8" standalone="no"?>
<svg width="23px" height="20px" viewBox="0 0 23 20" version="1.1" xmlns="http://www.w3.org/2000/svg" xmlns:xlink="http://www.w3.org/1999/xlink">
    <!-- Generator: sketchtool 41.1 (35376) - http://www.bohemiancoding.com/sketch -->
    <title>16FD96C6-4422-43F6-ACA8-6CF60F2AD146</title>
    <desc>Created with sketchtool.</desc>
    <defs></defs>
    <g id="Symbols" stroke="none" stroke-width="1" fill="none" fill-rule="evenodd">
        <g id="Social-nav" transform="translate(-13.000000, -63.000000)" fill="#152828">
            <g id="Group-38">
                <path d="M17.905982,67.7228773 C21.515383,69.5671436 24.565743,69.4607437 24.565743,69.4607437 C24.565743,69.4607437 23.4093328,65.3820774 26.9836913,63.5732781 C30.5580496,61.7644784 33.0177217,64.8140561 33.0177217,64.8140561 C33.0177217,64.8140561 33.6411052,64.640861 34.1055869,64.467666 C34.5700687,64.2944709 35.242345,63.985194 35.242345,63.985194 L34.1409213,65.9749566 L35.8369469,65.7930027 C35.8369469,65.7930027 35.6279071,66.1023412 34.9491295,66.732404 C34.2703519,67.3624668 33.9905944,67.6879648 33.9905944,67.6879648 C33.9905944,67.6879648 34.2330719,72.5974504 31.6777743,76.3772965 C29.1224763,80.1571424 25.8208819,82.4257078 21.0247848,82.903162 C16.2286878,83.3806162 13.1051282,81.4135623 13.1051282,81.4135623 C13.1051282,81.4135623 15.2026984,81.2924046 16.5393156,80.7751624 C17.8759328,80.2579203 19.7982893,78.8954294 19.7982893,78.8954294 C19.7982893,78.8954294 17.0649565,78.0442296 16.0837601,77.0866297 C15.1025637,76.1290299 14.8572646,75.5615634 14.8572646,75.5615634 L17.5555547,75.5260967 C17.5555547,75.5260967 14.7170937,74.0010303 13.9111109,72.7951639 C13.1051281,71.5892975 13,70.4188976 13,70.4188976 L15.0744699,71.2667412 C15.0744699,71.2667412 13.3504274,68.8938312 13.1051282,67.0495649 C12.8598291,65.2052986 13.4205127,64.2122321 13.4205127,64.2122321 C13.4205127,64.2122321 14.296581,65.878611 17.905982,67.7228773 Z" id="twitter_c"></path>
            </g>
        </g>
    </g>
</svg>